<mxfile host="app.diagrams.net" agent="Mozilla/5.0 (Windows NT 10.0; Win64; x64) AppleWebKit/537.36 (KHTML, like Gecko) Chrome/140.0.0.0 Safari/537.36" version="28.2.5">
  <diagram name="Page-1" id="CtZrxecPgvAGzupa3rpV">
    <mxGraphModel dx="801" dy="746" grid="1" gridSize="10" guides="1" tooltips="1" connect="1" arrows="1" fold="1" page="1" pageScale="1" pageWidth="850" pageHeight="1100" math="0" shadow="0">
      <root>
        <mxCell id="0" />
        <mxCell id="1" parent="0" />
        <mxCell id="JFBfamYNF0iCNlNNwoPo-1" value="&lt;b&gt;Question-3.1&lt;/b&gt;&lt;div&gt;&lt;b&gt;Where would the number 29 be stored in the binary search tree below?&lt;/b&gt;&lt;/div&gt;" style="text;html=1;align=left;verticalAlign=middle;whiteSpace=wrap;rounded=0;" parent="1" vertex="1">
          <mxGeometry x="41" y="120" width="800" height="40" as="geometry" />
        </mxCell>
        <mxCell id="JFBfamYNF0iCNlNNwoPo-4" value="24" style="ellipse;whiteSpace=wrap;html=1;aspect=fixed;" parent="1" vertex="1">
          <mxGeometry x="421" y="170" width="30" height="30" as="geometry" />
        </mxCell>
        <mxCell id="JFBfamYNF0iCNlNNwoPo-12" value="29" style="ellipse;whiteSpace=wrap;html=1;aspect=fixed;fillColor=#f8cecc;strokeColor=#b85450;" parent="1" vertex="1">
          <mxGeometry x="405" y="360" width="30" height="30" as="geometry" />
        </mxCell>
        <mxCell id="JFBfamYNF0iCNlNNwoPo-13" value="6" style="ellipse;whiteSpace=wrap;html=1;aspect=fixed;" parent="1" vertex="1">
          <mxGeometry x="336" y="360" width="30" height="30" as="geometry" />
        </mxCell>
        <mxCell id="JFBfamYNF0iCNlNNwoPo-14" value="32" style="ellipse;whiteSpace=wrap;html=1;aspect=fixed;" parent="1" vertex="1">
          <mxGeometry x="451" y="290" width="30" height="30" as="geometry" />
        </mxCell>
        <mxCell id="JFBfamYNF0iCNlNNwoPo-15" value="4" style="ellipse;whiteSpace=wrap;html=1;aspect=fixed;" parent="1" vertex="1">
          <mxGeometry x="231" y="360" width="30" height="30" as="geometry" />
        </mxCell>
        <mxCell id="JFBfamYNF0iCNlNNwoPo-17" value="5" style="ellipse;whiteSpace=wrap;html=1;aspect=fixed;" parent="1" vertex="1">
          <mxGeometry x="281" y="290" width="30" height="30" as="geometry" />
        </mxCell>
        <mxCell id="JFBfamYNF0iCNlNNwoPo-18" value="15" style="ellipse;whiteSpace=wrap;html=1;aspect=fixed;" parent="1" vertex="1">
          <mxGeometry x="371" y="290" width="30" height="30" as="geometry" />
        </mxCell>
        <mxCell id="JFBfamYNF0iCNlNNwoPo-19" value="36" style="ellipse;whiteSpace=wrap;html=1;aspect=fixed;" parent="1" vertex="1">
          <mxGeometry x="561" y="290" width="30" height="30" as="geometry" />
        </mxCell>
        <mxCell id="JFBfamYNF0iCNlNNwoPo-20" value="35" style="ellipse;whiteSpace=wrap;html=1;aspect=fixed;" parent="1" vertex="1">
          <mxGeometry x="505" y="230" width="30" height="30" as="geometry" />
        </mxCell>
        <mxCell id="JFBfamYNF0iCNlNNwoPo-21" value="12" style="ellipse;whiteSpace=wrap;html=1;aspect=fixed;" parent="1" vertex="1">
          <mxGeometry x="331" y="230" width="30" height="30" as="geometry" />
        </mxCell>
        <mxCell id="JFBfamYNF0iCNlNNwoPo-22" value="" style="endArrow=classic;html=1;rounded=0;exitX=0;exitY=1;exitDx=0;exitDy=0;entryX=1;entryY=0;entryDx=0;entryDy=0;" parent="1" source="JFBfamYNF0iCNlNNwoPo-4" target="JFBfamYNF0iCNlNNwoPo-21" edge="1">
          <mxGeometry width="50" height="50" relative="1" as="geometry">
            <mxPoint x="401" y="450" as="sourcePoint" />
            <mxPoint x="451" y="400" as="targetPoint" />
          </mxGeometry>
        </mxCell>
        <mxCell id="JFBfamYNF0iCNlNNwoPo-23" value="" style="endArrow=classic;html=1;rounded=0;exitX=1;exitY=1;exitDx=0;exitDy=0;entryX=0;entryY=0;entryDx=0;entryDy=0;" parent="1" source="JFBfamYNF0iCNlNNwoPo-4" target="JFBfamYNF0iCNlNNwoPo-20" edge="1">
          <mxGeometry width="50" height="50" relative="1" as="geometry">
            <mxPoint x="589" y="240" as="sourcePoint" />
            <mxPoint x="551" y="278" as="targetPoint" />
          </mxGeometry>
        </mxCell>
        <mxCell id="JFBfamYNF0iCNlNNwoPo-24" value="" style="endArrow=classic;html=1;rounded=0;exitX=0;exitY=1;exitDx=0;exitDy=0;entryX=0.5;entryY=0;entryDx=0;entryDy=0;" parent="1" target="JFBfamYNF0iCNlNNwoPo-17" edge="1">
          <mxGeometry width="50" height="50" relative="1" as="geometry">
            <mxPoint x="335" y="255" as="sourcePoint" />
            <mxPoint x="297" y="293" as="targetPoint" />
          </mxGeometry>
        </mxCell>
        <mxCell id="JFBfamYNF0iCNlNNwoPo-25" value="" style="endArrow=classic;html=1;rounded=0;exitX=1;exitY=1;exitDx=0;exitDy=0;entryX=0.5;entryY=0;entryDx=0;entryDy=0;" parent="1" target="JFBfamYNF0iCNlNNwoPo-18" edge="1">
          <mxGeometry width="50" height="50" relative="1" as="geometry">
            <mxPoint x="357" y="255" as="sourcePoint" />
            <mxPoint x="395" y="293" as="targetPoint" />
          </mxGeometry>
        </mxCell>
        <mxCell id="JFBfamYNF0iCNlNNwoPo-26" value="" style="endArrow=classic;html=1;rounded=0;exitX=0;exitY=1;exitDx=0;exitDy=0;entryX=0.5;entryY=0;entryDx=0;entryDy=0;" parent="1" target="JFBfamYNF0iCNlNNwoPo-14" edge="1">
          <mxGeometry width="50" height="50" relative="1" as="geometry">
            <mxPoint x="509" y="260" as="sourcePoint" />
            <mxPoint x="471" y="298" as="targetPoint" />
          </mxGeometry>
        </mxCell>
        <mxCell id="JFBfamYNF0iCNlNNwoPo-27" value="" style="endArrow=classic;html=1;rounded=0;exitX=1;exitY=1;exitDx=0;exitDy=0;entryX=0.267;entryY=0;entryDx=0;entryDy=0;entryPerimeter=0;" parent="1" target="JFBfamYNF0iCNlNNwoPo-19" edge="1">
          <mxGeometry width="50" height="50" relative="1" as="geometry">
            <mxPoint x="531" y="260" as="sourcePoint" />
            <mxPoint x="569" y="298" as="targetPoint" />
          </mxGeometry>
        </mxCell>
        <mxCell id="JFBfamYNF0iCNlNNwoPo-28" value="" style="endArrow=classic;html=1;rounded=0;exitX=0;exitY=1;exitDx=0;exitDy=0;entryX=0.5;entryY=0;entryDx=0;entryDy=0;" parent="1" source="JFBfamYNF0iCNlNNwoPo-17" target="JFBfamYNF0iCNlNNwoPo-15" edge="1">
          <mxGeometry width="50" height="50" relative="1" as="geometry">
            <mxPoint x="285" y="320" as="sourcePoint" />
            <mxPoint x="247" y="358" as="targetPoint" />
          </mxGeometry>
        </mxCell>
        <mxCell id="JFBfamYNF0iCNlNNwoPo-29" value="" style="endArrow=classic;html=1;rounded=0;exitX=1;exitY=1;exitDx=0;exitDy=0;entryX=0.354;entryY=0.108;entryDx=0;entryDy=0;entryPerimeter=0;" parent="1" source="JFBfamYNF0iCNlNNwoPo-17" target="JFBfamYNF0iCNlNNwoPo-13" edge="1">
          <mxGeometry width="50" height="50" relative="1" as="geometry">
            <mxPoint x="307" y="320" as="sourcePoint" />
            <mxPoint x="345" y="358" as="targetPoint" />
          </mxGeometry>
        </mxCell>
        <mxCell id="JFBfamYNF0iCNlNNwoPo-30" value="&lt;b&gt;Question-3.2&lt;/b&gt;&lt;div&gt;&lt;b&gt;Put the following numbers in a binary search tree assuming they were added according to the sequence:&lt;/b&gt;&lt;/div&gt;&lt;div&gt;&lt;b&gt;34, 32, 21, 15, 59, 30, 3, 1, 26.&amp;nbsp;&lt;/b&gt;&lt;/div&gt;&lt;div&gt;&lt;b&gt;Note: you don&#39;t have to use all the nodes.&lt;/b&gt;&lt;/div&gt;" style="text;html=1;align=left;verticalAlign=top;whiteSpace=wrap;rounded=0;" parent="1" vertex="1">
          <mxGeometry x="20" y="440" width="800" height="70" as="geometry" />
        </mxCell>
        <mxCell id="JFBfamYNF0iCNlNNwoPo-33" value="34" style="ellipse;whiteSpace=wrap;html=1;aspect=fixed;" parent="1" vertex="1">
          <mxGeometry x="438" y="520" width="30" height="30" as="geometry" />
        </mxCell>
        <mxCell id="JFBfamYNF0iCNlNNwoPo-34" value="30" style="ellipse;whiteSpace=wrap;html=1;aspect=fixed;" parent="1" vertex="1">
          <mxGeometry x="261" y="694.2199999999998" width="30" height="30" as="geometry" />
        </mxCell>
        <mxCell id="JFBfamYNF0iCNlNNwoPo-35" value="" style="ellipse;whiteSpace=wrap;html=1;aspect=fixed;" parent="1" vertex="1">
          <mxGeometry x="578" y="628.6099999999999" width="30" height="30" as="geometry" />
        </mxCell>
        <mxCell id="JFBfamYNF0iCNlNNwoPo-36" value="15" style="ellipse;whiteSpace=wrap;html=1;aspect=fixed;" parent="1" vertex="1">
          <mxGeometry x="103" y="694.2199999999998" width="30" height="30" as="geometry" />
        </mxCell>
        <mxCell id="JFBfamYNF0iCNlNNwoPo-37" value="21" style="ellipse;whiteSpace=wrap;html=1;aspect=fixed;" parent="1" vertex="1">
          <mxGeometry x="213" y="625.6099999999999" width="30" height="30" as="geometry" />
        </mxCell>
        <mxCell id="JFBfamYNF0iCNlNNwoPo-38" value="" style="ellipse;whiteSpace=wrap;html=1;aspect=fixed;" parent="1" vertex="1">
          <mxGeometry x="431.2" y="627.1099999999999" width="30" height="30" as="geometry" />
        </mxCell>
        <mxCell id="JFBfamYNF0iCNlNNwoPo-39" value="" style="ellipse;whiteSpace=wrap;html=1;aspect=fixed;" parent="1" vertex="1">
          <mxGeometry x="688" y="628.6099999999999" width="30" height="30" as="geometry" />
        </mxCell>
        <mxCell id="JFBfamYNF0iCNlNNwoPo-40" value="59" style="ellipse;whiteSpace=wrap;html=1;aspect=fixed;" parent="1" vertex="1">
          <mxGeometry x="632" y="568.6099999999999" width="30" height="30" as="geometry" />
        </mxCell>
        <mxCell id="JFBfamYNF0iCNlNNwoPo-41" value="32" style="ellipse;whiteSpace=wrap;html=1;aspect=fixed;" parent="1" vertex="1">
          <mxGeometry x="318" y="570" width="30" height="30" as="geometry" />
        </mxCell>
        <mxCell id="JFBfamYNF0iCNlNNwoPo-42" value="" style="endArrow=classic;html=1;rounded=0;exitX=0;exitY=1;exitDx=0;exitDy=0;entryX=1;entryY=0;entryDx=0;entryDy=0;" parent="1" source="JFBfamYNF0iCNlNNwoPo-33" target="JFBfamYNF0iCNlNNwoPo-41" edge="1">
          <mxGeometry width="50" height="50" relative="1" as="geometry">
            <mxPoint x="418" y="800" as="sourcePoint" />
            <mxPoint x="468" y="750" as="targetPoint" />
          </mxGeometry>
        </mxCell>
        <mxCell id="JFBfamYNF0iCNlNNwoPo-43" value="" style="endArrow=classic;html=1;rounded=0;exitX=1;exitY=1;exitDx=0;exitDy=0;entryX=0;entryY=0;entryDx=0;entryDy=0;" parent="1" source="JFBfamYNF0iCNlNNwoPo-33" target="JFBfamYNF0iCNlNNwoPo-40" edge="1">
          <mxGeometry width="50" height="50" relative="1" as="geometry">
            <mxPoint x="606" y="590" as="sourcePoint" />
            <mxPoint x="568" y="628" as="targetPoint" />
          </mxGeometry>
        </mxCell>
        <mxCell id="JFBfamYNF0iCNlNNwoPo-44" value="" style="endArrow=classic;html=1;rounded=0;exitX=0;exitY=1;exitDx=0;exitDy=0;entryX=0.5;entryY=0;entryDx=0;entryDy=0;" parent="1" source="JFBfamYNF0iCNlNNwoPo-41" target="JFBfamYNF0iCNlNNwoPo-37" edge="1">
          <mxGeometry width="50" height="50" relative="1" as="geometry">
            <mxPoint x="352" y="605" as="sourcePoint" />
            <mxPoint x="314" y="643" as="targetPoint" />
          </mxGeometry>
        </mxCell>
        <mxCell id="JFBfamYNF0iCNlNNwoPo-45" value="" style="endArrow=classic;html=1;rounded=0;entryX=0.5;entryY=0;entryDx=0;entryDy=0;" parent="1" source="JFBfamYNF0iCNlNNwoPo-41" target="JFBfamYNF0iCNlNNwoPo-38" edge="1">
          <mxGeometry width="50" height="50" relative="1" as="geometry">
            <mxPoint x="374" y="605" as="sourcePoint" />
            <mxPoint x="412" y="643" as="targetPoint" />
          </mxGeometry>
        </mxCell>
        <mxCell id="JFBfamYNF0iCNlNNwoPo-46" value="" style="endArrow=classic;html=1;rounded=0;exitX=0;exitY=1;exitDx=0;exitDy=0;entryX=0.5;entryY=0;entryDx=0;entryDy=0;" parent="1" target="JFBfamYNF0iCNlNNwoPo-35" edge="1">
          <mxGeometry width="50" height="50" relative="1" as="geometry">
            <mxPoint x="636" y="598.6099999999999" as="sourcePoint" />
            <mxPoint x="598" y="636.6099999999999" as="targetPoint" />
          </mxGeometry>
        </mxCell>
        <mxCell id="JFBfamYNF0iCNlNNwoPo-47" value="" style="endArrow=classic;html=1;rounded=0;exitX=1;exitY=1;exitDx=0;exitDy=0;entryX=0.267;entryY=0;entryDx=0;entryDy=0;entryPerimeter=0;" parent="1" target="JFBfamYNF0iCNlNNwoPo-39" edge="1">
          <mxGeometry width="50" height="50" relative="1" as="geometry">
            <mxPoint x="658" y="598.6099999999999" as="sourcePoint" />
            <mxPoint x="696" y="636.6099999999999" as="targetPoint" />
          </mxGeometry>
        </mxCell>
        <mxCell id="JFBfamYNF0iCNlNNwoPo-48" value="" style="endArrow=classic;html=1;rounded=0;entryX=0.5;entryY=0;entryDx=0;entryDy=0;" parent="1" source="JFBfamYNF0iCNlNNwoPo-37" target="JFBfamYNF0iCNlNNwoPo-36" edge="1">
          <mxGeometry width="50" height="50" relative="1" as="geometry">
            <mxPoint x="212.39339828221387" y="651.216601717786" as="sourcePoint" />
            <mxPoint x="174" y="693.6099999999999" as="targetPoint" />
          </mxGeometry>
        </mxCell>
        <mxCell id="JFBfamYNF0iCNlNNwoPo-49" value="" style="endArrow=classic;html=1;rounded=0;exitX=1;exitY=1;exitDx=0;exitDy=0;entryX=0.354;entryY=0.108;entryDx=0;entryDy=0;entryPerimeter=0;" parent="1" target="JFBfamYNF0iCNlNNwoPo-34" edge="1">
          <mxGeometry width="50" height="50" relative="1" as="geometry">
            <mxPoint x="233.6066017177859" y="651.2166017177856" as="sourcePoint" />
            <mxPoint x="272" y="693.6099999999999" as="targetPoint" />
          </mxGeometry>
        </mxCell>
        <mxCell id="JFBfamYNF0iCNlNNwoPo-55" value="" style="ellipse;whiteSpace=wrap;html=1;aspect=fixed;" parent="1" vertex="1">
          <mxGeometry x="471.2" y="697.1099999999999" width="30" height="30" as="geometry" />
        </mxCell>
        <mxCell id="JFBfamYNF0iCNlNNwoPo-56" value="" style="ellipse;whiteSpace=wrap;html=1;aspect=fixed;" parent="1" vertex="1">
          <mxGeometry x="391.2" y="697.1099999999999" width="30" height="30" as="geometry" />
        </mxCell>
        <mxCell id="JFBfamYNF0iCNlNNwoPo-57" value="" style="endArrow=classic;html=1;rounded=0;exitX=0;exitY=1;exitDx=0;exitDy=0;entryX=0.5;entryY=0;entryDx=0;entryDy=0;" parent="1" target="JFBfamYNF0iCNlNNwoPo-56" edge="1">
          <mxGeometry width="50" height="50" relative="1" as="geometry">
            <mxPoint x="435.2" y="653.1099999999999" as="sourcePoint" />
            <mxPoint x="397.2" y="695.1099999999999" as="targetPoint" />
          </mxGeometry>
        </mxCell>
        <mxCell id="JFBfamYNF0iCNlNNwoPo-58" value="" style="endArrow=classic;html=1;rounded=0;exitX=1;exitY=1;exitDx=0;exitDy=0;entryX=0.354;entryY=0.108;entryDx=0;entryDy=0;entryPerimeter=0;" parent="1" target="JFBfamYNF0iCNlNNwoPo-55" edge="1">
          <mxGeometry width="50" height="50" relative="1" as="geometry">
            <mxPoint x="457.2" y="653.1099999999999" as="sourcePoint" />
            <mxPoint x="495.20000000000005" y="695.1099999999999" as="targetPoint" />
          </mxGeometry>
        </mxCell>
        <mxCell id="JFBfamYNF0iCNlNNwoPo-59" value="" style="ellipse;whiteSpace=wrap;html=1;aspect=fixed;" parent="1" vertex="1">
          <mxGeometry x="608" y="698.6099999999999" width="30" height="30" as="geometry" />
        </mxCell>
        <mxCell id="JFBfamYNF0iCNlNNwoPo-60" value="" style="ellipse;whiteSpace=wrap;html=1;aspect=fixed;" parent="1" vertex="1">
          <mxGeometry x="538" y="698.6099999999999" width="30" height="30" as="geometry" />
        </mxCell>
        <mxCell id="JFBfamYNF0iCNlNNwoPo-61" value="" style="endArrow=classic;html=1;rounded=0;exitX=0;exitY=1;exitDx=0;exitDy=0;entryX=0.5;entryY=0;entryDx=0;entryDy=0;" parent="1" target="JFBfamYNF0iCNlNNwoPo-60" edge="1">
          <mxGeometry width="50" height="50" relative="1" as="geometry">
            <mxPoint x="581" y="654.6099999999999" as="sourcePoint" />
            <mxPoint x="543" y="696.6099999999999" as="targetPoint" />
          </mxGeometry>
        </mxCell>
        <mxCell id="JFBfamYNF0iCNlNNwoPo-62" value="" style="endArrow=classic;html=1;rounded=0;exitX=1;exitY=1;exitDx=0;exitDy=0;entryX=0.354;entryY=0.108;entryDx=0;entryDy=0;entryPerimeter=0;" parent="1" target="JFBfamYNF0iCNlNNwoPo-59" edge="1">
          <mxGeometry width="50" height="50" relative="1" as="geometry">
            <mxPoint x="603" y="654.6099999999999" as="sourcePoint" />
            <mxPoint x="641" y="696.6099999999999" as="targetPoint" />
          </mxGeometry>
        </mxCell>
        <mxCell id="JFBfamYNF0iCNlNNwoPo-63" value="" style="ellipse;whiteSpace=wrap;html=1;aspect=fixed;" parent="1" vertex="1">
          <mxGeometry x="718" y="698.6099999999999" width="30" height="30" as="geometry" />
        </mxCell>
        <mxCell id="JFBfamYNF0iCNlNNwoPo-64" value="" style="ellipse;whiteSpace=wrap;html=1;aspect=fixed;" parent="1" vertex="1">
          <mxGeometry x="648" y="698.6099999999999" width="30" height="30" as="geometry" />
        </mxCell>
        <mxCell id="JFBfamYNF0iCNlNNwoPo-65" value="" style="endArrow=classic;html=1;rounded=0;exitX=0;exitY=1;exitDx=0;exitDy=0;entryX=0.5;entryY=0;entryDx=0;entryDy=0;" parent="1" target="JFBfamYNF0iCNlNNwoPo-64" edge="1">
          <mxGeometry width="50" height="50" relative="1" as="geometry">
            <mxPoint x="692" y="654.6099999999999" as="sourcePoint" />
            <mxPoint x="654" y="696.6099999999999" as="targetPoint" />
          </mxGeometry>
        </mxCell>
        <mxCell id="JFBfamYNF0iCNlNNwoPo-66" value="" style="endArrow=classic;html=1;rounded=0;exitX=1;exitY=1;exitDx=0;exitDy=0;entryX=0.354;entryY=0.108;entryDx=0;entryDy=0;entryPerimeter=0;" parent="1" target="JFBfamYNF0iCNlNNwoPo-63" edge="1">
          <mxGeometry width="50" height="50" relative="1" as="geometry">
            <mxPoint x="714" y="654.6099999999999" as="sourcePoint" />
            <mxPoint x="752" y="696.6099999999999" as="targetPoint" />
          </mxGeometry>
        </mxCell>
        <mxCell id="JFBfamYNF0iCNlNNwoPo-67" value="" style="ellipse;whiteSpace=wrap;html=1;aspect=fixed;" parent="1" vertex="1">
          <mxGeometry x="133" y="768.6133982822141" width="30" height="30" as="geometry" />
        </mxCell>
        <mxCell id="JFBfamYNF0iCNlNNwoPo-68" value="3" style="ellipse;whiteSpace=wrap;html=1;aspect=fixed;" parent="1" vertex="1">
          <mxGeometry x="63" y="768.6133982822141" width="30" height="30" as="geometry" />
        </mxCell>
        <mxCell id="JFBfamYNF0iCNlNNwoPo-69" value="" style="endArrow=classic;html=1;rounded=0;entryX=0.5;entryY=0;entryDx=0;entryDy=0;" parent="1" target="JFBfamYNF0iCNlNNwoPo-68" edge="1">
          <mxGeometry width="50" height="50" relative="1" as="geometry">
            <mxPoint x="109" y="725.6133982822141" as="sourcePoint" />
            <mxPoint x="64" y="766.6133982822141" as="targetPoint" />
          </mxGeometry>
        </mxCell>
        <mxCell id="JFBfamYNF0iCNlNNwoPo-70" value="" style="endArrow=classic;html=1;rounded=0;exitX=1;exitY=1;exitDx=0;exitDy=0;entryX=0.354;entryY=0.108;entryDx=0;entryDy=0;entryPerimeter=0;" parent="1" target="JFBfamYNF0iCNlNNwoPo-67" edge="1">
          <mxGeometry width="50" height="50" relative="1" as="geometry">
            <mxPoint x="123.6066017177859" y="724.2199999999998" as="sourcePoint" />
            <mxPoint x="162" y="766.6133982822141" as="targetPoint" />
          </mxGeometry>
        </mxCell>
        <mxCell id="JFBfamYNF0iCNlNNwoPo-71" value="" style="ellipse;whiteSpace=wrap;html=1;aspect=fixed;" parent="1" vertex="1">
          <mxGeometry x="353" y="767.223398282214" width="30" height="30" as="geometry" />
        </mxCell>
        <mxCell id="JFBfamYNF0iCNlNNwoPo-72" value="26" style="ellipse;whiteSpace=wrap;html=1;aspect=fixed;" parent="1" vertex="1">
          <mxGeometry x="223" y="767.223398282214" width="30" height="30" as="geometry" />
        </mxCell>
        <mxCell id="JFBfamYNF0iCNlNNwoPo-73" value="" style="endArrow=classic;html=1;rounded=0;entryX=0.5;entryY=0;entryDx=0;entryDy=0;" parent="1" target="JFBfamYNF0iCNlNNwoPo-72" edge="1">
          <mxGeometry width="50" height="50" relative="1" as="geometry">
            <mxPoint x="269" y="724.223398282214" as="sourcePoint" />
            <mxPoint x="224" y="765.223398282214" as="targetPoint" />
          </mxGeometry>
        </mxCell>
        <mxCell id="JFBfamYNF0iCNlNNwoPo-74" value="" style="endArrow=classic;html=1;rounded=0;exitX=1;exitY=1;exitDx=0;exitDy=0;entryX=0.716;entryY=0.062;entryDx=0;entryDy=0;entryPerimeter=0;" parent="1" source="JFBfamYNF0iCNlNNwoPo-34" target="JFBfamYNF0iCNlNNwoPo-76" edge="1">
          <mxGeometry width="50" height="50" relative="1" as="geometry">
            <mxPoint x="364.8066017177859" y="725.7199999999998" as="sourcePoint" />
            <mxPoint x="403.2" y="768.1133982822141" as="targetPoint" />
          </mxGeometry>
        </mxCell>
        <mxCell id="JFBfamYNF0iCNlNNwoPo-75" value="" style="ellipse;whiteSpace=wrap;html=1;aspect=fixed;" parent="1" vertex="1">
          <mxGeometry x="426.2" y="770.1133982822141" width="30" height="30" as="geometry" />
        </mxCell>
        <mxCell id="JFBfamYNF0iCNlNNwoPo-76" value="" style="ellipse;whiteSpace=wrap;html=1;aspect=fixed;" parent="1" vertex="1">
          <mxGeometry x="285" y="767.223398282214" width="30" height="30" as="geometry" />
        </mxCell>
        <mxCell id="JFBfamYNF0iCNlNNwoPo-77" value="" style="endArrow=classic;html=1;rounded=0;entryX=0.5;entryY=0;entryDx=0;entryDy=0;" parent="1" edge="1">
          <mxGeometry width="50" height="50" relative="1" as="geometry">
            <mxPoint x="402.2" y="727.1133982822141" as="sourcePoint" />
            <mxPoint x="371.2" y="770.1133982822141" as="targetPoint" />
          </mxGeometry>
        </mxCell>
        <mxCell id="JFBfamYNF0iCNlNNwoPo-78" value="" style="endArrow=classic;html=1;rounded=0;exitX=1;exitY=1;exitDx=0;exitDy=0;entryX=0.354;entryY=0.108;entryDx=0;entryDy=0;entryPerimeter=0;" parent="1" target="JFBfamYNF0iCNlNNwoPo-75" edge="1">
          <mxGeometry width="50" height="50" relative="1" as="geometry">
            <mxPoint x="416.8066017177859" y="725.7199999999998" as="sourcePoint" />
            <mxPoint x="455.2" y="768.1133982822141" as="targetPoint" />
          </mxGeometry>
        </mxCell>
        <mxCell id="JFBfamYNF0iCNlNNwoPo-79" value="" style="endArrow=classic;html=1;rounded=0;entryX=0.5;entryY=0;entryDx=0;entryDy=0;exitX=0;exitY=1;exitDx=0;exitDy=0;" parent="1" source="JFBfamYNF0iCNlNNwoPo-14" target="JFBfamYNF0iCNlNNwoPo-12" edge="1">
          <mxGeometry width="50" height="50" relative="1" as="geometry">
            <mxPoint x="456.2033982822018" y="299.99660171779817" as="sourcePoint" />
            <mxPoint x="414.81" y="342.78" as="targetPoint" />
          </mxGeometry>
        </mxCell>
        <mxCell id="rihcxN5UTjiLVQ_BDiFT-3" value="&lt;span style=&quot;font-weight: 700; text-align: left; font-size: 16px;&quot;&gt;LAB-3&lt;/span&gt;&lt;div style=&quot;font-size: 24px; font-weight: 700; text-align: left; text-wrap-mode: nowrap;&quot;&gt;&lt;span style=&quot;font-size: 16px; text-wrap-mode: wrap;&quot;&gt;Question-3&lt;/span&gt;&lt;/div&gt;" style="text;html=1;align=center;verticalAlign=middle;whiteSpace=wrap;rounded=0;" parent="1" vertex="1">
          <mxGeometry x="345" y="30" width="160" height="30" as="geometry" />
        </mxCell>
        <mxCell id="V6SdO9y3wV_8a_rpXkbe-1" value="1" style="ellipse;whiteSpace=wrap;html=1;aspect=fixed;" vertex="1" parent="1">
          <mxGeometry x="17" y="841.61" width="30" height="30" as="geometry" />
        </mxCell>
        <mxCell id="V6SdO9y3wV_8a_rpXkbe-2" value="" style="endArrow=classic;html=1;rounded=0;entryX=0.5;entryY=0;entryDx=0;entryDy=0;" edge="1" parent="1" target="V6SdO9y3wV_8a_rpXkbe-1">
          <mxGeometry width="50" height="50" relative="1" as="geometry">
            <mxPoint x="63" y="798.61" as="sourcePoint" />
            <mxPoint x="18" y="839.61" as="targetPoint" />
          </mxGeometry>
        </mxCell>
      </root>
    </mxGraphModel>
  </diagram>
</mxfile>
